<svg xmlns="http://www.w3.org/2000/svg" width="535" height="342" viewBox="0 0 535 342" fill="none"><path fill-rule="evenodd" clip-rule="evenodd" d="M500.22 206.04H487.372C483.299 206.04 480.165 202.907 480.165 198.833V143.684C480.165 139.61 483.299 136.477 487.372 136.477H500.22C519.334 136.477 535.002 152.144 535.002 171.258C535.002 190.373 519.334 206.04 500.22 206.04ZM494.266 191.626H500.22C511.5 191.626 520.588 182.539 520.588 171.258C520.588 159.978 511.5 150.891 500.22 150.891H494.266V191.626ZM364.853 206.04H169.949C166.189 206.04 162.742 202.907 162.742 198.833V143.684C162.742 139.61 166.189 136.477 169.949 136.477H364.853C368.926 136.477 372.06 139.61 372.06 143.684V198.833C372.06 202.907 368.926 206.04 364.853 206.04ZM177.156 191.626H357.959V150.891H177.156V191.626ZM47.7425 206.04H34.8951C15.7808 206.04 0.113281 190.373 0.113281 171.258C0.113281 152.144 15.7808 136.477 34.8951 136.477H47.7425C51.816 136.477 54.9495 139.61 54.9495 143.684V198.833C54.9495 202.907 51.816 206.04 47.7425 206.04ZM34.8951 150.891C23.6145 150.891 14.5274 159.978 14.5274 171.258C14.5274 182.539 23.6145 191.626 34.8951 191.626H40.5354V150.891H34.8951Z" fill="#C1D5FF"></path><path fill-rule="evenodd" clip-rule="evenodd" d="M398.696 341.104C376.135 341.104 357.961 322.616 357.961 300.055V41.541C357.961 18.9798 376.135 0.492188 398.696 0.492188C421.258 0.492188 439.745 18.9798 439.745 41.541V300.055C439.745 322.616 421.258 341.104 398.696 341.104ZM398.696 14.9063C383.969 14.9063 372.062 26.8136 372.062 41.541V300.055C372.062 314.782 383.969 326.689 398.696 326.689C413.424 326.689 425.331 314.782 425.331 300.055V41.541C425.331 26.8136 413.424 14.9063 398.696 14.9063Z" fill="#C1D5FF"></path><path fill-rule="evenodd" clip-rule="evenodd" d="M459.797 283.125C440.996 283.125 425.328 267.458 425.328 248.657V92.9216C425.328 73.8073 440.996 58.4531 459.797 58.4531C478.911 58.4531 494.265 73.8073 494.265 92.9216V248.657C494.265 267.458 478.911 283.125 459.797 283.125ZM459.797 72.8672C448.829 72.8672 439.742 81.9544 439.742 92.9216V248.657C439.742 259.624 448.829 268.711 459.797 268.711C471.077 268.711 480.164 259.624 480.164 248.657V92.9216C480.164 81.9544 471.077 72.8672 459.797 72.8672Z" fill="#C1D5FF"></path><path fill-rule="evenodd" clip-rule="evenodd" d="M136.118 341.104C113.557 341.104 95.3828 322.616 95.3828 300.055V41.541C95.3828 18.9798 113.557 0.492188 136.118 0.492188C158.993 0.492188 177.167 18.9798 177.167 41.541V300.055C177.167 322.616 158.993 341.104 136.118 341.104ZM136.118 14.9063C121.704 14.9063 109.484 26.8136 109.484 41.541V300.055C109.484 314.782 121.704 326.689 136.118 326.689C150.846 326.689 162.753 314.782 162.753 300.055V41.541C162.753 26.8136 150.846 14.9063 136.118 14.9063Z" fill="#C1D5FF"></path><path fill-rule="evenodd" clip-rule="evenodd" d="M75.0115 283.125C56.2105 283.125 40.543 267.458 40.543 248.657V92.9216C40.543 73.8073 56.2105 58.4531 75.0115 58.4531C94.1258 58.4531 109.48 73.8073 109.48 92.9216V248.657C109.48 267.458 94.1258 283.125 75.0115 283.125ZM75.0115 72.8672C64.0442 72.8672 54.9571 81.9544 54.9571 92.9216V248.657C54.9571 259.624 64.0442 268.711 75.0115 268.711C86.2921 268.711 95.3792 259.624 95.3792 248.657V92.9216C95.3792 81.9544 86.2921 72.8672 75.0115 72.8672Z" fill="#C1D5FF"></path><path fill-rule="evenodd" clip-rule="evenodd" d="M398.695 260.872C394.935 260.872 391.488 257.738 391.488 253.665V87.9024C391.488 83.8288 394.935 80.6953 398.695 80.6953C402.769 80.6953 405.902 83.8288 405.902 87.9024V253.665C405.902 257.738 402.769 260.872 398.695 260.872Z" fill="#C1D5FF"></path><path fill-rule="evenodd" clip-rule="evenodd" d="M136.105 260.872C132.344 260.872 129.211 257.738 129.211 253.665V87.9024C129.211 83.8288 132.344 80.6953 136.105 80.6953C140.178 80.6953 143.312 83.8288 143.312 87.9024V253.665C143.312 257.738 140.178 260.872 136.105 260.872Z" fill="#C1D5FF"></path></svg>