<svg xmlns="http://www.w3.org/2000/svg" width="33" height="33" viewBox="0 0 33 33" fill="none"><path d="M16.5 9.66797C12.7684 9.66797 9.73242 12.7038 9.73242 16.4355C9.73242 20.1673 12.7684 23.2031 16.5 23.2031C20.2316 23.2031 23.2676 20.1673 23.2676 16.4355C23.2676 12.7038 20.2316 9.66797 16.5 9.66797ZM16.5 21.2695C13.8345 21.2695 11.666 19.1009 11.666 16.4355C11.666 13.77 13.8345 11.6015 16.5 11.6015C19.1655 11.6015 21.334 13.77 21.334 16.4355C21.334 19.101 19.1655 21.2695 16.5 21.2695Z" fill="#C1D5FF"></path><path d="M32.5839 0.172194C32.3232 -0.00846783 31.9905 -0.0497823 31.6937 0.0615927C29.9868 0.701677 28.5357 1.83199 27.4974 3.3304C26.515 4.74792 25.9716 6.39572 25.9157 8.11295C25.126 7.21995 24.2109 6.43788 23.1924 5.79579C21.1908 4.53406 18.8766 3.86723 16.5 3.86723C14.0458 3.86723 11.6874 4.57234 9.66797 5.88397V0.966837C9.66797 0.432907 9.2351 3.99894e-05 8.70117 3.99894e-05C8.16724 3.99894e-05 7.73438 0.432907 7.73438 0.966837V7.08988H5.80078V0.966837C5.80078 0.432907 5.36791 3.99894e-05 4.83398 3.99894e-05C4.30005 3.99894e-05 3.86719 0.432907 3.86719 0.966837V7.08988H1.93359V0.966837C1.93359 0.432907 1.50073 3.99894e-05 0.966797 3.99894e-05C0.432867 3.99894e-05 0 0.432907 0 0.966837V8.95542C0 10.5546 0.714076 12.0506 1.93359 13.0535V30.0996C1.93359 31.6989 3.23471 33 4.83398 33C6.43326 33 7.73438 31.6989 7.73438 30.0996V25.4448C10.0551 27.7081 13.1778 29.0039 16.5 29.0039C20.9005 29.0039 24.9321 26.7086 27.1992 23.0327V30.0996C27.1992 31.6989 28.5003 33 30.0996 33C31.6989 33 33 31.6989 33 30.0996V0.966837C33 0.649728 32.8445 0.352792 32.5839 0.172194ZM6.23133 11.764C5.96237 11.9433 5.80078 12.2451 5.80078 12.5683V30.0996C5.80078 30.6327 5.36708 31.0664 4.83398 31.0664C4.30089 31.0664 3.86719 30.6327 3.86719 30.0996V12.5683C3.86719 12.245 3.7056 11.9433 3.43664 11.764C2.51432 11.1491 1.95628 10.1285 1.93424 9.02348H7.73367C7.71162 10.1285 7.15359 11.1491 6.23133 11.764ZM16.5 27.0703C12.98 27.0703 9.72443 25.3507 7.73438 22.4568V13.0535C8.95389 12.0506 9.66797 10.5546 9.66797 8.95542V8.28613C11.5811 6.67893 13.9808 5.80082 16.5 5.80082C20.4767 5.80082 24.0612 7.97205 25.9102 11.481V20.3027C25.9102 20.5845 25.9626 20.8542 26.0574 21.1031C24.2785 24.7428 20.5761 27.0703 16.5 27.0703ZM31.0664 30.0996C31.0664 30.6327 30.6327 31.0664 30.0996 31.0664C29.5665 31.0664 29.1328 30.6327 29.1328 30.0996V22.5586H31.0664V30.0996ZM31.0664 20.625H28.166C27.9883 20.625 27.8438 20.4804 27.8438 20.3027V8.4073C27.8438 6.00862 29.0949 3.7933 31.0664 2.52725V20.625Z" fill="#C1D5FF"></path></svg>